<?xml version="1.0" standalone="no"?>
<?xml-stylesheet type="text/css" href="../css/gui.css" ?>
<svg version="1.0" xmlns="http://www.w3.org/2000/svg"
 width="30" height="30" viewBox="0 0 512.000000 512.000000"
 preserveAspectRatio="xMidYMid meet">
    <g transform="translate(0.000000,512.000000) scale(0.100000,-0.100000)"
    fill="#000000" stroke="none">
    <path class="eyebrow" d="M2830 3160 c-352 -25 -585 -51 -843 -96 -350 -61 -731 -178 -1087
    -334 -130 -57 -454 -232 -560 -303 -224 -150 -328 -227 -333 -249 -7 -26 8
    -48 34 -48 10 0 121 36 246 80 594 209 1199 298 1883 279 441 -12 485 -18
    1058 -144 90 -19 220 -44 290 -55 362 -55 1069 -85 1427 -60 150 10 163 14
    171 46 5 19 -6 39 -51 94 -187 228 -559 478 -935 628 -168 67 -261 95 -437
    133 -145 32 -153 32 -443 35 -162 1 -351 -2 -420 -6z"/>
    </g>
</svg>
